. 
  
http://www.torrenting.com/        :     Greatest Movie Tracker on The Net!!!
 
http://www.Torrenting.com          :     Once & For all ;)


               www . Torrenting . Com 

(((((((((((((= Enjoy No RAR releases =))))))))))))))))))))


...................................NFO:....................................

.                                                                                                     
       
     
     
       
       
     
     
                                         
                                         
                EXVID                    
                                         
         
                                         
         Filled the Archives             
                                         
         
                                         
                With:                    
                                         
         
                                         
                                    
     E240                           
                                    
     SP               (C) 2009      
                                         
     
     
     
                                                                                  
                                                                                   
                Snoopy.Come.Home.1972.PROPER.DVDRip.XviD-EXViD                      
                                                                                   
                                                                                  
     
                                                                                               
EXViD aims to iNTERNAL those releases which have been lost in the archives.
EXViD aims to PRE non-internal releases which have poor sources and are likely skipped by others. 
http://www.imdb.com/title/tt0069289/
Subtitles: None
Date: 2011.04

Director: Bill Melendez
Genre: Animation | Adventure | Comedy 
Plot: Snoopy travels to see his sick former owner and then feels obliged to return to her 
permanently. 

Cast
Complete credited cast:
Chad Webber 	Chad Webber 	... 	
Charlie Brown (voice)
Robin Kohn 	Robin Kohn 	... 	
Lucy Van Pelt (voice)
Stephen Shea 	Stephen Shea 	... 	
Linus Van Pelt (voice)
David Carey 	David Carey 	... 	
Schroeder (voice)
Johanna Baer 	Johanna Baer 	... 	
Lila (voice)
Hilary Momberger 	Hilary Momberger 	... 	
Sally (voice)
Christopher DeFaria 	Christopher DeFaria 	... 	
Peppermint Patty (voice) (as Chris De Faria)
Linda Ercoli 	Linda Ercoli 	... 	
Clara (voice)
Lynda Mendelson 	Lynda Mendelson 	... 	
Frieda (voice) (as Linda Mendelson)
Bill Melendez 	Bill Melendez 	... 	
Snoopy / Woodstock (voice)
Full cast and crew  

Stats:
General
xvid.avi
Format                           : AVI
Format/Info                      : Audio Video Interleave
File size                        : 697 MiB
Duration                         : 1h 20mn
Overall bit rate                 : 1 209 Kbps
Writing application              : VirtualDubMod 1.5.10.2 (build 2542/release)
Writing library                  : VirtualDubMod build 2542/release

Video
ID                               : 0
Format                           : MPEG-4 Visual
Format profile                   : Advanced Simple@L5
Format settings, BVOP            : Yes
Format settings, QPel            : No
Format settings, GMC             : No warppoints
Format settings, Matrix          : Default (H.263)
Codec ID                         : XVID
Codec ID/Hint                    : XviD
Duration                         : 1h 20mn
Bit rate                         : 1 122 Kbps
Width                            : 640 pixels
Height                           : 352 pixels
Display aspect ratio             : 16:9
Frame rate                       : 23.976 fps
Resolution                       : 8 bits
Colorimetry                      : 4:2:0
Scan type                        : Progressive
Bits/(Pixel*Frame)               : 0.208
Stream size                      : 647 MiB (93%)
Writing library                  : XviD 61

Audio
ID                               : 1
Format                           : MPEG Audio
Format version                   : Version 1
Format profile                   : Layer 3
Codec ID                         : 55
Codec ID/Hint                    : MP3
Duration                         : 1h 20mn
Bit rate mode                    : Variable
Bit rate                         : 74.2 Kbps
Minimum bit rate                 : 32.0 Kbps
Channel(s)                       : 1 channel
Sampling rate                    : 48.0 KHz
Stream size                      : 42.8 MiB (6%)
Alignment                        : Aligned on interleaves
Interleave, duration             : 24 ms (0.58 video frame)
Interleave, preload duration     : 248 ms
Writing library                  : LAME3.95 
Encoding settings                : -m m -V 4 -q 3 -lowpass 18 --vbr-old -b 32

Release notes:
BNU release has tons of ghosting. Our DVD is different than the one BNU used in that it is
still WS, but has different cropping. VOB sample included to show we did not overcrop.

Looking for:
75TB+ Archives
                                                                                                    
Greets: CRBS EPiSODE FiCO FLS iLS KLASSiGER LiPSYNC MADE NODLABS RUNNER SPRiNTER
   

                                                                    ASCII DONE BY XX^NFO 2oo9